<mxfile host="app.diagrams.net" modified="2024-04-18T16:13:36.115Z" agent="Mozilla/5.0 (X11; Linux x86_64) AppleWebKit/537.36 (KHTML, like Gecko) Chrome/122.0.0.0 Safari/537.36" etag="ahjXxzFXvOmBKUZyW4D5" version="24.2.5" type="github">
  <diagram name="Page-1" id="HltYXGP-Br1IU6SSIg8R">
    <mxGraphModel dx="1008" dy="481" grid="1" gridSize="10" guides="1" tooltips="1" connect="1" arrows="1" fold="1" page="1" pageScale="1" pageWidth="827" pageHeight="1169" math="0" shadow="0">
      <root>
        <mxCell id="0" />
        <mxCell id="1" parent="0" />
      </root>
    </mxGraphModel>
  </diagram>
</mxfile>
